<?xml version="1.0" standalone="no"?>

<!DOCTYPE svg PUBLIC "-//W3C//DTD SVG 20010904//EN"

 "http://www.w3.org/TR/2001/REC-SVG-20010904/DTD/svg10.dtd">

<svg version="1.0" xmlns="http://www.w3.org/2000/svg"

 width="641.000000pt" height="467.000000pt" viewBox="0 0 641.000000 467.000000"

 preserveAspectRatio="xMidYMid meet">

<path fill="#121313" stroke="none" d="
M104 464

C99 462 80 457 63 452

C46 446 30 441 27 439

C17 433 13 421 16 408

C17 406 29 376 43 342

C74 266 73 269 73 260

L73 253

L73 253

C73 253 79 255 86 257

C110 265 136 271 167 276

L186 279

L182 289

C177 305 173 318 162 344

C139 399 134 418 139 435

C141 444 140 451 135 457

C128 466 118 469 104 464

Z

M409 343

C405 339 405 334 408 330

C410 328 412 327 422 325

C437 322 444 320 457 314

C483 301 504 280 517 252

C526 233 529 221 530 201

C531 171 523 145 507 121

C494 101 470 82 447 73

C440 70 424 66 417 65

C410 65 406 61 406 56

C406 51 408 48 412 46

C415 45 416 45 424 46

C458 52 482 65 506 89

C523 106 535 126 543 148

L547 158

L561 158

L576 158

L576 173

L576 188

L564 188

L551 188

L551 201

C548 251 523 295 483 322

C478 326 470 330 467 332

C453 339 426 346 415 346

C413 346 411 345 409 343

Z

M178 339

C178 339 180 335 181 330

C185 322 185 322 195 320

C203 319 208 318 212 316

C224 311 234 299 238 287

L239 281

L250 281

L260 281

L260 283

C260 286 257 296 253 303

C245 318 230 331 215 337

C209 339 205 339 193 340

L178 340

L178 339

Z

M339 290

C339 290 339 247 339 195

L339 101

L349 101

C364 101 366 103 366 122

L366 134

L369 135

C387 138 396 143 406 153

C418 165 423 178 423 195

C423 214 418 226 406 239

C395 249 386 254 369 257

L366 258

L366 270

C366 282 365 285 361 288

C359 290 356 290 349 290

C344 290 340 290 339 290

Z

M248 268

C235 268 200 265 186 263

C141 258 99 248 61 234

C52 231 38 226 28 223

C18 220 9 216 7 214

C2 210 0 204 0 197

C1 189 4 184 11 181

C17 178 72 159 102 150

C170 130 207 125 285 123

L318 123

L318 196

L318 269

L287 269

C270 269 252 268 248 268

Z

M263 216

C268 213 269 209 269 194

C269 185 269 180 268 178

C265 171 265 171 214 171

C157 171 162 169 162 194

C162 209 162 211 164 213

C165 214 166 216 168 216

C169 217 190 217 215 217

C253 217 261 217 263 216

Z

M565 243

L565 232

L576 232

L586 232

L586 243

L586 254

L576 254

L565 254

L565 243

Z

M599 205

L599 194

L610 194

L621 194

L621 205

L621 216

L610 216

L599 216

L599 205

Z

M438 195

L438 182

L443 182

C462 184 460 209 442 209

L438 209

L438 195

Z

M48 144

C45 140 37 131 31 124

C22 113 20 110 20 108

C20 104 22 101 26 99

C28 98 32 99 56 104

C105 116 123 121 124 122

C125 124 125 127 124 128

C122 129 63 149 57 150

C55 151 54 150 48 144

Z

M610 135

L610 124

L621 124

L632 124

L632 135

L632 146

L621 146

L610 146

L610 135

Z

M565 104

L565 93

L576 93

L586 93

L586 104

L586 115

L576 115

L565 115

L565 104

Z

M606 61

L606 44

L623 44

L640 44

L640 61

L640 77

L623 77

L606 77

L606 61

Z

M524 59

L524 48

L535 48

L546 48

L546 59

L546 70

L535 70

L524 70

L524 59

Z

M560 17

L560 0

L577 0

L594 0

L594 17

L594 33

L577 33

L560 33

L560 17

Z

"/>

<path fill="#393939" stroke="none" d="
M196 320

L197 320

L198 320

L198 321

L196 321

L195 321

L196 320

Z

M502 307

C502 307 503 305 505 303

L509 301

L506 304

C504 306 502 307 502 307

L502 307

L502 307

Z

M339 281

L339 280

L340 281

L340 282

L340 283

L339 283

L339 281

Z

M339 273

L339 272

L340 273

L340 274

L340 275

L339 275

L339 273

Z

M256 268

C257 268 259 268 260 268

L262 269

L258 269

L255 269

L256 268

Z

M339 265

L339 264

L340 265

L340 266

L340 267

L339 267

L339 265

Z

M339 249

L339 248

L340 249

L340 250

L340 251

L339 251

L339 249

Z

M339 240

L339 239

L340 240

L340 241

L340 242

L339 242

L339 240

Z

M339 233

L339 232

L340 233

L340 234

L340 235

L339 235

L339 233

Z

M339 217

L339 216

L340 217

L340 218

L340 219

L339 219

L339 217

Z

M599 206

L599 195

L600 200

C600 203 600 208 600 211

L599 217

L599 206

Z

M339 210

L339 208

L340 209

C340 209 340 211 340 211

L339 213

L339 210

Z

M339 203

L339 199

L340 201

C340 202 340 204 340 205

L339 208

L339 203

Z

M550 202

L550 201

L551 202

L551 203

L551 204

L550 204

L550 202

Z

M339 196

L339 195

L340 196

L340 197

L340 198

L339 198

L339 196

Z

M339 192

L339 191

L340 192

L340 193

L340 194

L339 194

L339 192

Z

M339 185

L339 184

L340 185

L340 186

L340 187

L339 187

L339 185

Z

M339 177

L339 174

L340 175

C340 176 340 178 340 178

L339 180

L339 177

Z

M553 158

C558 158 564 158 569 158

L577 159

L561 159

L546 159

L553 158

Z

M339 153

L339 152

L340 153

L340 154

L340 155

L339 155

L339 153

Z

M339 145

L339 144

L340 145

L340 146

L340 147

L339 147

L339 145

Z

M339 139

L339 136

L340 137

C340 138 340 140 340 140

L339 142

L339 139

Z

M339 129

L339 127

L340 128

C340 128 340 130 340 130

L339 132

L339 129

Z

M339 116

L339 105

L340 110

C340 113 340 118 340 121

L339 127

L339 116

Z

M283 123

C285 123 289 123 291 123

L295 124

L287 124

L279 124

L283 123

Z

M306 123

L307 123

L308 123

L308 124

L306 124

L305 124

L306 123

Z

"/>

<path fill="#ffffff" stroke="none" d="
"/>

<path fill="#ffffff" stroke="none" d="
"/>

<path fill="#ffffff" stroke="none" d="
"/>

<path fill="#ffffff" stroke="none" d="
"/>

<path fill="#ffffff" stroke="none" d="
"/>

<path fill="#ffffff" stroke="none" d="
"/>

</svg>

